#format: frame checksums
#version: 1
#hash: MD5
#tb 0: 1001/30000
#stream#, dts,        pts, duration,     size, hash
0,          0,          0,        1,      864, 62eabc8819ded6ddba2c3a5029497cf0
0,          1,          1,        1,      864, b760182fddf8bc05f149e80bbcb2c281
0,          2,          2,        1,      864, 0c44be0472ebd2653ce9fb174c6180ab
0,          3,          3,        1,      864, bbb033c3bfeeb6f59cb43013597b9d92
0,          4,          4,        1,      864, a769975cdbc6529525f7cac8a0d9299a
0,          5,          5,        1,      864, 15b02059bbced62f19c0626efea1ecb9
0,          6,          6,        1,      864, 47f4b50322ed31649bdcfffb05c70fa2
0,          7,          7,        1,      864, 8649cdd0a958047839f5b6e7bbf6f288
0,          8,          8,        1,      864, 2c766e3fd3882a9a5aff52ffe9d1d341
0,          9,          9,        1,      864, 184a62b7332a1c24acbf03f670fb7ac1
